<svg width="154" height="154" viewBox="0 0 154 154" fill="none" xmlns="http://www.w3.org/2000/svg">
<path d="M109.477 134.323L106.994 134.615L106.994 134.615L109.477 134.323ZM105.025 96.4055L107.508 96.114L107.508 96.1139L105.025 96.4055ZM84.3122 76.9583V79.4583H84.3133L84.3122 76.9583ZM68.9826 76.9583V74.4583H68.9818L68.9826 76.9583ZM48.2834 96.4055L50.7663 96.6975L50.7663 96.6972L48.2834 96.4055ZM43.825 134.323L41.3421 134.031L41.342 134.032L43.825 134.323ZM57.6384 150.958V148.458H57.6364L57.6384 150.958ZM95.6704 150.958L95.671 148.458H95.6704V150.958ZM21.0113 91.7584L23.2739 90.695C22.8618 89.8182 21.9802 89.2584 21.0113 89.2584V91.7584ZM18.883 91.7584L18.8826 94.2584H18.883V91.7584ZM5.16001 104.124L2.69016 103.737L2.69007 103.737L5.16001 104.124ZM2.84386 118.924L5.3137 119.311L5.3138 119.31L2.84386 118.924ZM16.5668 136.158V133.658H16.5665L16.5668 136.158ZM41.8775 136.158V138.658C42.7331 138.658 43.5293 138.221 43.9879 137.498C44.4466 136.776 44.504 135.869 44.1401 135.095L41.8775 136.158ZM132.297 89.2584C130.917 89.2584 129.797 90.3776 129.797 91.7584C129.797 93.1391 130.917 94.2584 132.297 94.2584V89.2584ZM134.426 91.7584V94.2584H134.426L134.426 91.7584ZM148.149 104.124L150.619 103.737L150.619 103.737L148.149 104.124ZM150.465 118.924L147.995 119.31L147.995 119.311L150.465 118.924ZM136.742 136.158L136.742 133.658H136.742V136.158ZM111.431 133.658C110.051 133.658 108.931 134.778 108.931 136.158C108.931 137.539 110.051 138.658 111.431 138.658V133.658ZM111.96 134.032L107.508 96.114L102.542 96.697L106.994 134.615L111.96 134.032ZM107.508 96.1139C106.811 90.1792 104.098 84.6895 99.838 80.6903L96.4156 84.3355C99.7849 87.4989 101.978 91.8904 102.542 96.6972L107.508 96.1139ZM99.838 80.6903C95.5744 76.6873 90.0545 74.456 84.3112 74.4583L84.3133 79.4583C88.7446 79.4565 93.0503 81.1759 96.4156 84.3355L99.838 80.6903ZM84.3122 74.4583H68.9826V79.4583H84.3122V74.4583ZM68.9818 74.4583C63.2413 74.4601 57.7252 76.6932 53.4649 80.6958L56.8885 84.3398C60.2513 81.1805 64.554 79.4597 68.9833 79.4583L68.9818 74.4583ZM53.4649 80.6958C49.2087 84.6946 46.4972 90.182 45.8004 96.1139L50.7663 96.6972C51.3306 91.8926 53.5217 87.503 56.8885 84.3398L53.4649 80.6958ZM45.8005 96.1136L41.3421 134.031L46.3079 134.615L50.7663 96.6975L45.8005 96.1136ZM41.342 134.032C41.0586 136.445 41.2606 138.896 41.9366 141.224L46.7383 139.83C46.2494 138.146 46.102 136.368 46.3079 134.615L41.342 134.032ZM41.9366 141.224C42.6127 143.552 43.7494 145.711 45.2799 147.554L49.1266 144.36C48.0441 143.057 47.2271 141.513 46.7383 139.83L41.9366 141.224ZM45.2799 147.554C46.8107 149.398 48.702 150.885 50.8345 151.907L52.9955 147.398C51.5297 146.695 50.2087 145.663 49.1266 144.36L45.2799 147.554ZM50.8345 151.907C52.9676 152.929 55.2881 153.46 57.6403 153.458L57.6364 148.458C56.0421 148.46 54.4606 148.1 52.9955 147.398L50.8345 151.907ZM57.6384 153.458H95.6704V148.458H57.6384V153.458ZM95.6698 153.458C98.0213 153.459 100.341 152.927 102.473 151.904L100.31 147.396C98.8457 148.099 97.2648 148.459 95.671 148.458L95.6698 153.458ZM102.473 151.904C104.604 150.882 106.495 149.394 108.025 147.551L104.177 144.358C103.096 145.661 101.775 146.693 100.31 147.396L102.473 151.904ZM108.025 147.551C109.554 145.708 110.69 143.55 111.366 141.222L106.564 139.828C106.075 141.511 105.259 143.054 104.177 144.358L108.025 147.551ZM111.366 141.222C112.041 138.895 112.243 136.444 111.96 134.032L106.994 134.615C107.2 136.367 107.053 138.145 106.564 139.828L111.366 141.222ZM95.0205 25.1583C95.0205 36.1866 86.654 44.8583 76.6544 44.8583V49.8583C89.7028 49.8583 100.021 38.6516 100.021 25.1583H95.0205ZM76.6544 44.8583C66.6547 44.8583 58.2882 36.1866 58.2882 25.1583H53.2882C53.2882 38.6516 63.6059 49.8583 76.6544 49.8583V44.8583ZM58.2882 25.1583C58.2882 14.1301 66.6547 5.45834 76.6544 5.45834V0.458344C63.6059 0.458344 53.2882 11.6651 53.2882 25.1583H58.2882ZM76.6544 5.45834C86.654 5.45834 95.0205 14.1301 95.0205 25.1583H100.021C100.021 11.6651 89.7028 0.458344 76.6544 0.458344V5.45834ZM32.4221 54.7584C32.4221 61.6997 27.1696 67.0584 21.0113 67.0584V72.0584C30.2184 72.0584 37.4221 64.1647 37.4221 54.7584H32.4221ZM21.0113 67.0584C14.853 67.0584 9.60055 61.6997 9.60055 54.7584H4.60055C4.60055 64.1647 11.8042 72.0584 21.0113 72.0584V67.0584ZM9.60055 54.7584C9.60055 47.8171 14.853 42.4584 21.0113 42.4584V37.4584C11.8042 37.4584 4.60055 45.352 4.60055 54.7584H9.60055ZM21.0113 42.4584C27.1696 42.4584 32.4221 47.8171 32.4221 54.7584H37.4221C37.4221 45.352 30.2184 37.4584 21.0113 37.4584V42.4584ZM143.708 54.7584C143.708 61.6997 138.456 67.0584 132.297 67.0584V72.0584C141.505 72.0584 148.708 64.1647 148.708 54.7584H143.708ZM132.297 67.0584C126.139 67.0584 120.887 61.6997 120.887 54.7584H115.887C115.887 64.1647 123.09 72.0584 132.297 72.0584V67.0584ZM120.887 54.7584C120.887 47.8171 126.139 42.4584 132.297 42.4584V37.4584C123.09 37.4584 115.887 45.352 115.887 54.7584H120.887ZM132.297 42.4584C138.456 42.4584 143.708 47.8171 143.708 54.7584H148.708C148.708 45.352 141.505 37.4584 132.297 37.4584V42.4584ZM21.0113 89.2584H18.883V94.2584H21.0113V89.2584ZM18.8833 89.2584C14.9539 89.2578 11.1757 90.7417 8.21738 93.4073L11.5644 97.1218C13.6317 95.259 16.2262 94.258 18.8826 94.2584L18.8833 89.2584ZM8.21738 93.4073C5.26275 96.0697 3.31743 99.735 2.69016 103.737L7.62985 104.511C8.08596 101.601 9.49338 98.988 11.5644 97.1218L8.21738 93.4073ZM2.69007 103.737L0.373926 118.537L5.3138 119.31L7.62994 104.51L2.69007 103.737ZM0.374023 118.537C-0.0111635 120.994 0.111151 123.511 0.733659 125.915L5.57406 124.662C5.12338 122.921 5.03413 121.094 5.3137 119.311L0.374023 118.537ZM0.733659 125.915C1.35621 128.32 2.46619 130.562 3.99527 132.482L7.90677 129.368C6.82374 128.007 6.02469 126.403 5.57406 124.662L0.733659 125.915ZM3.99527 132.482C5.52471 134.403 7.43873 135.958 9.61116 137.029L11.8221 132.544C10.3279 131.808 8.98944 130.727 7.90677 129.368L3.99527 132.482ZM9.61116 137.029C11.7843 138.1 14.1585 138.659 16.5672 138.658L16.5665 133.658C14.934 133.659 13.3156 133.281 11.8221 132.544L9.61116 137.029ZM16.5668 138.658H41.8775V133.658H16.5668V138.658ZM44.1401 135.095L23.2739 90.695L18.7487 92.8217L39.6149 137.222L44.1401 135.095ZM132.297 94.2584H134.426V89.2584H132.297V94.2584ZM134.426 94.2584C137.083 94.258 139.677 95.259 141.744 97.1218L145.091 93.4073C142.133 90.7417 138.355 89.2578 134.425 89.2584L134.426 94.2584ZM141.744 97.1218C143.815 98.988 145.223 101.601 145.679 104.511L150.619 103.737C149.991 99.735 148.046 96.0697 145.091 93.4073L141.744 97.1218ZM145.679 104.51L147.995 119.31L152.935 118.537L150.619 103.737L145.679 104.51ZM147.995 119.311C148.275 121.094 148.185 122.921 147.735 124.662L152.575 125.915C153.198 123.511 153.32 120.994 152.935 118.537L147.995 119.311ZM147.735 124.662C147.284 126.403 146.485 128.007 145.402 129.368L149.313 132.482C150.843 130.562 151.952 128.32 152.575 125.915L147.735 124.662ZM145.402 129.368C144.319 130.727 142.981 131.808 141.487 132.544L143.698 137.029C145.87 135.958 147.784 134.403 149.313 132.482L145.402 129.368ZM141.487 132.544C139.993 133.281 138.375 133.659 136.742 133.658L136.742 138.658C139.15 138.659 141.524 138.1 143.698 137.029L141.487 132.544ZM136.742 133.658H111.431V138.658H136.742V133.658Z" fill="black"/>
</svg>
